<svg width="520" height="520" viewBox="0 0 520 520" fill="none" xmlns="http://www.w3.org/2000/svg">
  <rect width="520" height="520" rx="84" fill="#050505"/>
  <circle cx="260" cy="260" r="206" fill="url(#ring)" opacity="0.26"/>
  <circle cx="260" cy="260" r="164" fill="#111111" stroke="#2E2E2E" stroke-width="3"/>
  <path d="M160 390C173 335 207 306 260 306C313 306 347 335 360 390C331 412 298 423 260 423C222 423 189 412 160 390Z" fill="url(#hood)"/>
  <path d="M182 226C182 164 215 124 260 124C305 124 338 164 338 226V268C338 318 305 354 260 354C215 354 182 318 182 268V226Z" fill="url(#skin)"/>
  <path d="M176 223C190 166 221 119 284 126C330 131 353 177 343 238C323 210 298 196 267 197C227 198 197 207 176 223Z" fill="url(#hair)"/>
  <path d="M188 211C212 170 244 150 285 151C322 152 342 178 345 214C320 184 292 172 260 178C225 185 201 196 188 211Z" fill="#0C0C0C"/>
  <circle cx="203" cy="256" r="20" fill="url(#skin)"/>
  <circle cx="317" cy="256" r="20" fill="url(#skin)"/>
  <path d="M220 250C232 241 246 241 257 250" stroke="#171717" stroke-width="9" stroke-linecap="round"/>
  <path d="M263 250C276 241 290 241 301 250" stroke="#171717" stroke-width="9" stroke-linecap="round"/>
  <circle cx="239" cy="267" r="9" fill="#0A0A0A"/>
  <circle cx="281" cy="267" r="9" fill="#0A0A0A"/>
  <path d="M259 273L250 304H273" stroke="#A6654A" stroke-width="7" stroke-linecap="round" stroke-linejoin="round"/>
  <path d="M233 318C249 331 273 331 290 318" stroke="#7F3B33" stroke-width="8" stroke-linecap="round"/>
  <path d="M159 255C159 176 196 104 260 104C324 104 361 176 361 255" stroke="url(#accent)" stroke-width="16" stroke-linecap="round"/>
  <rect x="133" y="238" width="37" height="76" rx="18" fill="#171717" stroke="#2F2F2F" stroke-width="4"/>
  <rect x="350" y="238" width="37" height="76" rx="18" fill="#171717" stroke="#2F2F2F" stroke-width="4"/>
  <path d="M191 399C212 442 309 442 329 399" stroke="url(#accent)" stroke-width="8" stroke-linecap="round"/>
  <path d="M114 160L151 136" stroke="#FFFFFF" stroke-width="6" stroke-linecap="round" opacity="0.28"/>
  <path d="M383 134L410 168" stroke="#FFFFFF" stroke-width="6" stroke-linecap="round" opacity="0.28"/>
  <path d="M405 350L435 374" stroke="#FFFFFF" stroke-width="6" stroke-linecap="round" opacity="0.24"/>
  <defs>
    <linearGradient id="ring" x1="87" y1="105" x2="440" y2="418" gradientUnits="userSpaceOnUse">
      <stop stop-color="#8B4DFF"/>
      <stop offset="0.56" stop-color="#FF4D8D"/>
      <stop offset="1" stop-color="#FF9A3D"/>
    </linearGradient>
    <linearGradient id="hood" x1="160" y1="306" x2="360" y2="423" gradientUnits="userSpaceOnUse">
      <stop stop-color="#121212"/>
      <stop offset="0.48" stop-color="#252525"/>
      <stop offset="1" stop-color="#090909"/>
    </linearGradient>
    <linearGradient id="skin" x1="205" y1="142" x2="312" y2="340" gradientUnits="userSpaceOnUse">
      <stop stop-color="#F0B091"/>
      <stop offset="0.55" stop-color="#CE765D"/>
      <stop offset="1" stop-color="#8E3E32"/>
    </linearGradient>
    <linearGradient id="hair" x1="176" y1="126" x2="344" y2="238" gradientUnits="userSpaceOnUse">
      <stop stop-color="#242424"/>
      <stop offset="0.48" stop-color="#0A0A0A"/>
      <stop offset="1" stop-color="#2E1A17"/>
    </linearGradient>
    <linearGradient id="accent" x1="151" y1="104" x2="390" y2="313" gradientUnits="userSpaceOnUse">
      <stop stop-color="#8B4DFF"/>
      <stop offset="0.58" stop-color="#FF4D8D"/>
      <stop offset="1" stop-color="#FF9A3D"/>
    </linearGradient>
  </defs>
</svg>
