<svg width="520" height="520" viewBox="0 0 520 520" fill="none" xmlns="http://www.w3.org/2000/svg">
  <rect width="520" height="520" rx="82" fill="#050505"/>
  <rect x="34" y="34" width="452" height="452" rx="68" fill="url(#panel)" stroke="#242424" stroke-width="2"/>
  <circle cx="260" cy="260" r="186" stroke="url(#accent)" stroke-width="18" opacity="0.88"/>
  <circle cx="260" cy="260" r="142" fill="#080808" stroke="#2f2f2f" stroke-width="3"/>
  <path d="M128 203L84 260L128 317" stroke="#ffffff" stroke-width="22" stroke-linecap="round" stroke-linejoin="round" opacity="0.9"/>
  <path d="M392 203L436 260L392 317" stroke="#ffffff" stroke-width="22" stroke-linecap="round" stroke-linejoin="round" opacity="0.9"/>
  <path d="M303 154L219 366" stroke="url(#accent)" stroke-width="20" stroke-linecap="round"/>

  <g filter="url(#glow)">
    <text x="260" y="255" text-anchor="middle" fill="#ffffff" font-family="Arial, Helvetica, sans-serif" font-size="94" font-weight="900" letter-spacing="0">LDP</text>
    <text x="260" y="315" text-anchor="middle" fill="#b9b9b9" font-family="Arial, Helvetica, sans-serif" font-size="28" font-weight="800" letter-spacing="6">CODE</text>
  </g>

  <path d="M165 402C220 435 301 437 357 403" stroke="url(#accent)" stroke-width="10" stroke-linecap="round"/>
  <path d="M141 126C172 97 214 79 260 79" stroke="#ffffff" stroke-width="7" stroke-linecap="round" opacity="0.28"/>
  <path d="M367 126C393 151 411 187 416 227" stroke="#ffffff" stroke-width="7" stroke-linecap="round" opacity="0.24"/>
  <path d="M86 373L119 344" stroke="#ff9a3d" stroke-width="8" stroke-linecap="round" opacity="0.65"/>
  <path d="M432 373L400 344" stroke="#ff4d8d" stroke-width="8" stroke-linecap="round" opacity="0.65"/>

  <circle cx="157" cy="157" r="7" fill="#ff4d8d"/>
  <circle cx="363" cy="157" r="7" fill="#ff9a3d"/>
  <circle cx="157" cy="363" r="7" fill="#8b4dff"/>
  <circle cx="363" cy="363" r="7" fill="#ffffff" opacity="0.85"/>

  <defs>
    <linearGradient id="panel" x1="79" y1="64" x2="438" y2="461" gradientUnits="userSpaceOnUse">
      <stop stop-color="#151515"/>
      <stop offset="0.48" stop-color="#070707"/>
      <stop offset="1" stop-color="#111111"/>
    </linearGradient>
    <linearGradient id="accent" x1="101" y1="102" x2="424" y2="421" gradientUnits="userSpaceOnUse">
      <stop stop-color="#8b4dff"/>
      <stop offset="0.5" stop-color="#ff4d8d"/>
      <stop offset="1" stop-color="#ff9a3d"/>
    </linearGradient>
    <filter id="glow" x="80" y="140" width="360" height="230" filterUnits="userSpaceOnUse" color-interpolation-filters="sRGB">
      <feDropShadow dx="0" dy="18" stdDeviation="18" flood-color="#000000" flood-opacity="0.75"/>
      <feDropShadow dx="0" dy="0" stdDeviation="8" flood-color="#ff4d8d" flood-opacity="0.18"/>
    </filter>
  </defs>
</svg>
